<svg width="20" height="20" viewBox="0 0 20 20" fill="#FF0000" xmlns="http://www.w3.org/2000/svg">
<path d="M9.87806 5.95137L10.1225 5.94506C10.2476 5.26959 10.6827 4.60055 11.3027 4.06344C11.9219 3.52707 12.7168 3.1302 13.5463 2.99314C14.3745 2.8563 15.2342 2.9786 15.9926 3.47547C16.7512 3.97248 17.4212 4.85273 17.8532 6.2551C18.7746 9.24652 16.9918 12.1997 14.8482 14.5228C13.7806 15.6798 12.6328 16.6701 11.7095 17.4175C11.3187 17.7338 10.9687 18.0062 10.6816 18.2296C10.6294 18.2701 10.5794 18.3091 10.5315 18.3464C10.3762 18.4675 10.2434 18.5718 10.139 18.6574C10.0901 18.6975 10.046 18.7346 10.0081 18.7683C9.96697 18.7257 9.91845 18.6799 9.86446 18.6313C9.75898 18.5365 9.62535 18.4249 9.46947 18.2983C9.32309 18.1794 9.15578 18.0462 8.97213 17.8999L8.93562 17.8709C8.7374 17.713 8.52054 17.5402 8.28957 17.3531C7.36549 16.6046 6.21778 15.63 5.15027 14.4915C3.00757 12.2063 1.22493 9.30076 2.14718 6.25856C2.56469 4.88161 3.21545 4.00177 3.95684 3.49473C4.69782 2.98797 5.54095 2.84555 6.35954 2.96417C8.00698 3.2029 9.52946 4.49355 9.87806 5.95137Z" stroke="#FF0000" stroke-width="0.25"/>
<path d="M19.3341 4.59475C19.1279 3.85088 18.7889 3.16998 18.3407 2.59959C17.9004 2.04251 17.3654 1.60545 16.7721 1.31802C16.4853 1.17816 16.1875 1.07375 15.8831 1.00643C15.7327 0.974012 15.5811 0.951048 15.4287 0.93763C15.2771 0.922169 15.1247 0.919496 14.9727 0.92963L15.3854 1.15843C15.5207 1.23442 15.6551 1.30842 15.7864 1.38962C16.0497 1.54722 16.3051 1.71481 16.5501 1.89761C17.0391 2.262 17.4864 2.68199 17.8747 3.17638C18.2641 3.66917 18.5908 4.23356 18.8631 4.85595C18.9998 5.16594 19.1208 5.49233 19.2334 5.82953C19.2898 5.99712 19.3438 6.16952 19.3961 6.34432L19.5538 6.87351C19.5714 6.68431 19.5768 6.49271 19.5754 6.30192C19.5679 5.72143 19.4865 5.14574 19.3341 4.59475" fill="#FF0000"/>
<path d="M19.9927 3.51723C19.9744 3.22964 19.9301 2.94529 19.8604 2.66925C19.7204 2.11454 19.4757 1.606 19.1454 1.18313C18.8151 0.760254 18.408 0.434413 17.9557 0.230901C17.7403 0.135378 17.5169 0.0685773 17.2894 0.0317053C17.1769 0.0130597 17.0636 0.0029065 16.95 0.00130584C16.8364 -0.00111586 16.7228 0.00731062 16.6104 0.0265054C16.7107 0.0961039 16.809 0.159303 16.906 0.222501C17.0037 0.2865 17.098 0.349299 17.1917 0.414497C17.3794 0.541295 17.5597 0.672092 17.733 0.810889C18.0777 1.08928 18.3924 1.39408 18.668 1.74487C18.9472 2.10322 19.1891 2.50092 19.3884 2.92925C19.4927 3.14884 19.5887 3.37804 19.6814 3.61883C19.728 3.73923 19.7717 3.86123 19.8174 3.98722C19.8627 4.11082 19.9067 4.23842 19.9564 4.36842C19.9797 4.22682 19.9917 4.08602 19.996 3.94442C20.0023 3.80208 20.0012 3.65941 19.9927 3.51723" fill="#FF0000"/>
<path d="M0.766941 5.82951C0.879275 5.49152 1.00094 5.16592 1.13694 4.85593C1.40928 4.23274 1.73662 3.66876 2.12562 3.17637C2.51362 2.68238 2.96096 2.26198 3.4503 1.89679C3.6953 1.7152 3.9503 1.5472 4.21397 1.3896C4.34564 1.3084 4.47997 1.23441 4.61531 1.15841L5.02798 0.929612C4.87591 0.919612 4.72344 0.922017 4.57164 0.936812C4.41964 0.949212 4.26864 0.974812 4.11764 1.00641C3.81564 1.07281 3.51763 1.17681 3.2283 1.318C2.63487 1.60528 2.09988 2.04235 1.65962 2.59958C1.21123 3.16976 0.872192 3.85073 0.666273 4.59474C0.513478 5.14561 0.432084 5.72138 0.424938 6.3019C0.423604 6.4931 0.428938 6.68429 0.447271 6.87349L0.604273 6.3435C0.656606 6.1695 0.710607 5.99631 0.766941 5.82951" fill="#FF0000"/>
<path d="M1.33191 1.744C1.60791 1.3932 1.92224 1.08841 2.26691 0.810016C2.43992 0.670819 2.62025 0.540422 2.80825 0.413624C2.90192 0.348426 2.99692 0.285627 3.09392 0.221628C3.19092 0.15843 3.28926 0.094431 3.38959 0.0248325C3.27707 0.00611317 3.1635 -0.00204469 3.04992 0.000433034C2.93638 0.00165006 2.82302 0.0118051 2.71059 0.0308325C2.48296 0.0677521 2.25939 0.134551 2.04391 0.230028C1.59745 0.430911 1.19503 0.751289 0.867235 1.16681C0.530975 1.59292 0.282061 2.10716 0.140228 2.66878C0.0701092 2.94444 0.025616 3.22856 0.0075606 3.51596C-0.000937306 3.6584 -0.0022731 3.80132 0.00356054 3.94395C0.00822725 4.08475 0.0198941 4.22635 0.0435609 4.36794C0.0932281 4.23795 0.137562 4.11035 0.182562 3.98675C0.227896 3.86075 0.27223 3.73876 0.318897 3.61836C0.411231 3.37756 0.507232 3.14837 0.611566 2.92797C0.810684 2.49965 1.05258 2.10206 1.33191 1.744" fill="#FF0000"/>
<path d="M1.92292 13.3969L1.87625 13.4589C2.05025 14.0593 2.30292 14.5557 2.58359 15.0141C2.85926 15.4797 3.1736 15.8921 3.5116 16.2741C3.85127 16.6537 4.21294 17.0041 4.61394 17.3013C5.01028 17.6061 5.43395 17.8732 5.93529 18.0372L5.98196 17.9756C5.32528 17.1857 4.64361 16.4297 3.97594 15.6549C3.29093 14.9029 2.61959 14.1337 1.92292 13.3969" fill="#FF0000"/>
<path d="M0.53623 14.5845L0.489563 14.6461C0.720898 15.3117 1.0309 15.8721 1.36857 16.3957C1.70157 16.9249 2.07324 17.4033 2.46825 17.8496C2.86525 18.2932 3.28425 18.7084 3.74259 19.0704C4.19626 19.4392 4.67693 19.7716 5.23561 20L5.28227 19.9384C4.51127 19.0192 3.71526 18.1332 2.93259 17.2305C2.13291 16.3497 1.34724 15.4501 0.53623 14.5845" fill="#FF0000"/>
<path d="M16.4887 16.2745C16.8267 15.8925 17.141 15.4801 17.4167 15.0145C17.6974 14.5562 17.95 14.0598 18.1237 13.4594L18.077 13.3974C17.3807 14.1342 16.709 14.9033 16.0244 15.6557C15.3564 16.4305 14.6747 17.1865 14.018 17.9765L14.065 18.0381C14.5663 17.8741 14.9897 17.6069 15.386 17.3021C15.7874 17.0045 16.149 16.6541 16.4887 16.2745Z" fill="#FF0000"/>
<path d="M17.0678 17.2305C16.2851 18.1332 15.4898 19.0192 14.7184 19.9384L14.7644 20C15.3234 19.7716 15.8041 19.4392 16.2574 19.0704C16.7154 18.7088 17.1344 18.2936 17.5321 17.8496C17.9271 17.4033 18.2988 16.9249 18.6315 16.3957C18.9691 15.8721 19.2791 15.3117 19.5105 14.6461L19.4638 14.5845C18.6531 15.4501 17.8674 16.3497 17.0678 17.2305" fill="#FF0000"/>
</svg>
